<svg xmlns="http://www.w3.org/2000/svg" viewBox="0 0 468.05 640.42"><defs><style>.cls-1{fill:#fff;}.cls-2{fill:#003698;}</style></defs><g id="Capa_2" data-name="Capa 2"><g id="Capa_1-2" data-name="Capa 1"><path class="cls-1" d="M452.71.18c-3.63-.25-7.25-.17-10.9-.17L144.39.09H126A351.11,351.11,0,0,0,89.39,21.94c-7,4.77-14.42,10.14-22,16.13,0,0-.06.06-.08.06C66,39.05,64.7,40,63.4,40.88,52.77,48.23,42.53,56.19,31.68,63.11,17,71.85,7.27,75.42,2.81,76.81c-.28.11-.55.17-.82.25l-.3.08L.6,77.41c-.19.06-.41.08-.6.14v26.18H144.39V640.29q22,0,44,0c40.43,0,80.83.49,121.23-.25,59.15-1.06,122-46.48,110.47-125.59-4.08-27.9-19.88-44.65-47.67-45.85-10.66-.49-14.5-5.34-14.44-15.26.11-21.33.43-42.69-.17-64-.6-21.55,1.23-42.39,9.21-62.77,6.89-17.74,12-36.15,18-54.27q27-82.8,54-165.62c9.5-29.31,19.2-58.6,27.84-88.18C470.53,5.52,466.19,1,452.71.18Zm-174.8,162.1c0,2.26.55,4.85-.32,6.73-9,19.28-26.29,7-39.59,9.86-8.91,1.93-11.52-4.93-11.5-12.78.06-9.07,0-18.14,0-27.22s.25-18.14,0-27.21c-.25-9.37,4.27-12.92,13.32-12.81,43.48.52,37.95-3.92,38,36.18C277.83,144.1,277.89,153.2,277.91,162.28ZM236.67,16.58a21.91,21.91,0,0,1,3.43,0,3.63,3.63,0,0,0,.57,0c1.14.06,2.32,0,3.49,0,37.76.38,33.34-3.79,33.67,33.24,0,35.72,3.3,32.58-33.07,32.42-17.71-.08-18.28-.71-18.28-18.34,0-11.3.35-22.64-.14-33.94C226,21.18,229.34,17,236.67,16.58ZM51.6,82.21c-2.75,0-5.5-1.77-11.17-3.71C56.72,67.47,71,58.26,84.76,48.4c28-20,41.65-29,59.63-32.18,13.08-2.29,28.44-1.55,53.34.25,8.72.62,13.22,3.7,12.7,13.37-.68,13.11-.35,26.27-.25,39.37.09,8.26-3.32,13-11.9,13l-53.89.08Q98,82.31,51.6,82.21Zm109.63,34.16q-.16,245.69-.36,491.42c0,3.16.55,6.81-.81,9.35-1.45,2.75-4.85,6.1-7.44,6.13-2.34,0-5.75-3.63-6.87-6.41-1.28-3.16-.65-7.13-.65-10.76q0-122.51,0-245-.07-121.15,0-242.3c0-3.19-.88-6.76.27-9.46,1.52-3.59,4.63-6.53,7.05-9.78,2.95,3.36,6.24,6.43,8.64,10.14C162.05,111.28,161.23,114.08,161.23,116.37Zm19.12,477.17c-1.36-6-3.16-10.29-3.16-14.57q-.16-197.27.11-394.54c0-5.1,1.2-10.19,1.83-15.29,1.41.08,2.83.17,4.22.27,7.71,28.26,15.23,56.59,23.13,84.79,16,57.1,32.39,114.09,48,171.33,1.85,6.84,1.5,15.89-1.47,22.18-22.15,47.13-45.2,93.83-68,140.66C184.38,589.48,183.24,590.33,180.35,593.54Zm114,30.57c-31.74.25-63.5.06-95.27.08-9.32,0-14.44-3-9.42-13.13q33.13-67,66.36-134c1.75-3.54,4.36-6.62,6.59-9.91l3.76.35c3.95,14.22,7.74,28.5,11.86,42.69,9.42,32.61,19.15,65.17,28.49,97.83C310,619.81,306.82,624,294.31,624.11Zm77.38-362.67c-8.86,27.17-17.79,54.27-26.46,81.49a51.58,51.58,0,0,0-2.61,14.63c-.22,38.11-.33,76.23-.11,114.34.08,14.74,2.86,16.65,17.13,14.25,29.43-4.88,40.19-.68,44.9,34.76,6.4,48.06-20.16,85.49-66.39,98.92-11.83,3.44-14.2-4.71-16.46-12.77-9.91-35.31-19.56-70.73-29.47-106-4.28-15.28-8.56-30.59-13.54-45.63C274.83,443.84,276.44,434,282,423c23.56-47,46-94.59,69-141.83,8.48-17.38,17.66-34.44,26.54-51.63l4,1.56Q376.62,246.22,371.69,261.44Zm43.72-146.27C381.9,184,348.61,253.05,315,321.9,300.74,351.1,285.89,380,270,411.75c-3.14-6.6-6-11-7.39-15.8-18.74-67.65-37.13-135.41-56-203-7.27-26.16-15.77-52-23.21-78.06-1.17-4.17-1-12.34.79-13.05,5.5-2.2,12.45-3.13,18.12-1.71,3.32.81,7.35,6.94,7.52,10.81.81,19,.4,38.12.54,57.16.11,23.07,3.16,26.15,25.72,26.18,13.16,0,26.32.05,39.48,0,12.55,0,19.23-5.42,18.85-19-.57-19.94.22-39.94-.27-59.88-.28-11.31,3.54-16.73,15.61-16.54,32.2.46,64.43.11,96.63.36C420.94,99.26,422,101.66,415.41,115.17Zm30.84-82.52c-4.09,13-7.65,26.21-13.27,38.52-2.23,4.85-9.29,10.52-14.27,10.66-37.19.89-74.43.4-111.65.54-9.31.06-13.07-4.22-12.88-13.32.27-13.16.35-26.32,0-39.48-.25-9.4,4.06-13.1,13.1-13,21.8.17,43.59.06,65.39.06,20.43.05,40.86-.08,61.27.08C448.57,16.8,450.45,19.3,446.25,32.65Z"/><path class="cls-2" d="M161.23,116.37q-.16,245.69-.36,491.42c0,3.16.55,6.81-.81,9.35-1.45,2.75-4.85,6.1-7.44,6.13-2.34,0-5.75-3.63-6.87-6.41-1.28-3.16-.65-7.13-.65-10.76q0-122.51,0-245-.07-121.15,0-242.3c0-3.19-.88-6.76.27-9.46,1.52-3.59,4.63-6.53,7.05-9.78,2.95,3.36,6.24,6.43,8.64,10.14C162.05,111.28,161.23,114.08,161.23,116.37Z"/><path class="cls-2" d="M338.15,619.83c-11.83,3.44-14.2-4.71-16.46-12.77-9.91-35.31-19.56-70.73-29.47-106-4.28-15.28-8.56-30.59-13.54-45.63C274.83,443.84,276.44,434,282,423c23.56-47,46-94.59,69-141.83,8.48-17.38,17.66-34.44,26.54-51.63l4,1.56q-5,15.15-9.91,30.37c-8.86,27.17-17.79,54.27-26.46,81.49a51.58,51.58,0,0,0-2.61,14.63c-.22,38.11-.33,76.23-.11,114.34.08,14.74,2.86,16.65,17.13,14.25,29.43-4.88,40.19-.68,44.9,34.76C410.94,569,384.38,606.4,338.15,619.83Z"/><path class="cls-2" d="M294.31,624.11c-31.74.25-63.5.06-95.27.08-9.32,0-14.44-3-9.42-13.13q33.13-67,66.36-134c1.75-3.54,4.36-6.62,6.59-9.91l3.76.35c3.95,14.22,7.74,28.5,11.86,42.69,9.42,32.61,19.15,65.17,28.49,97.83C310,619.81,306.82,624,294.31,624.11Z"/><path class="cls-2" d="M253,447.71c-22.15,47.13-45.2,93.83-68,140.66-.55,1.11-1.69,2-4.58,5.17-1.36-6-3.16-10.29-3.16-14.57q-.16-197.27.11-394.54c0-5.1,1.2-10.19,1.83-15.29,1.41.08,2.83.17,4.22.27,7.71,28.26,15.23,56.59,23.13,84.79,16,57.1,32.39,114.09,48,171.33C256.28,432.37,255.93,441.42,253,447.71Z"/><path class="cls-2" d="M277.59,169c-9,19.28-26.29,7-39.59,9.86-8.91,1.93-11.52-4.93-11.5-12.78.06-9.07,0-18.14,0-27.22s.25-18.14,0-27.21c-.25-9.37,4.27-12.92,13.32-12.81,43.48.52,37.95-3.92,38,36.18,0,9.07.09,18.17.11,27.25C277.91,164.54,278.46,167.13,277.59,169Z"/><path class="cls-2" d="M415.41,115.17C381.9,184,348.61,253.05,315,321.9,300.74,351.1,285.89,380,270,411.75c-3.14-6.6-6-11-7.39-15.8-18.74-67.65-37.13-135.41-56-203-7.27-26.16-15.77-52-23.21-78.06-1.17-4.17-1-12.34.79-13.05,5.5-2.2,12.45-3.13,18.12-1.71,3.32.81,7.35,6.94,7.52,10.81.81,19,.4,38.12.54,57.16.11,23.07,3.16,26.15,25.72,26.18,13.16,0,26.32.05,39.48,0,12.55,0,19.23-5.42,18.85-19-.57-19.94.22-39.94-.27-59.88-.28-11.31,3.54-16.73,15.61-16.54,32.2.46,64.43.11,96.63.36C420.94,99.26,422,101.66,415.41,115.17Z"/><path class="cls-2" d="M446.25,32.65c-4.09,13-7.65,26.21-13.27,38.52-2.23,4.85-9.29,10.52-14.27,10.66-37.19.89-74.43.4-111.65.54-9.31.06-13.07-4.22-12.88-13.32.27-13.16.35-26.32,0-39.48-.25-9.4,4.06-13.1,13.1-13,21.8.17,43.59.06,65.39.06,20.43.05,40.86-.08,61.27.08C448.57,16.8,450.45,19.3,446.25,32.65Z"/><path class="cls-2" d="M244.76,82.29c-17.71-.08-18.28-.71-18.28-18.34,0-11.3.35-22.64-.14-33.94-.38-8.83,3-13,10.33-13.43.21,0,.46,0,.7,0a30.23,30.23,0,0,0,3.3,0c1.14.06,2.32,0,3.49,0,37.76.38,33.34-3.79,33.67,33.24C277.8,85.59,281.13,82.45,244.76,82.29Z"/><path class="cls-2" d="M210.18,69.21c.09,8.26-3.32,13-11.9,13l-53.89.08q-46.42,0-92.79-.05c-2.75,0-5.5-1.77-11.17-3.71C56.72,67.47,71,58.26,84.76,48.4c28-20,41.65-29,59.63-32.18,13.08-2.29,28.44-1.55,53.34.25,8.72.62,13.22,3.7,12.7,13.37C209.75,43,210.08,56.11,210.18,69.21Z"/></g></g></svg>