<svg xmlns="http://www.w3.org/2000/svg" viewBox="0 0 996.97 1357.48"><defs><style>.cls-1{fill:#fff;}.cls-2{fill:#003698;}</style></defs><g id="Capa_2" data-name="Capa 2"><g id="Capa_1-2" data-name="Capa 1"><path class="cls-1" d="M997,735.33V713.85c-7.39-1.32-8-5.48-8-18.62q0-119.76-.08-239.5c0-7.66.33-16.12-2.6-22.88-10.67-24.63-22.5-48.8-34.3-72.94-4.13-8.46-11.11-11.23-20.61-7.94-18.5,6.38-37.39,11.71-55.78,18.42-10.65,3.86-16.15,1.07-19.6-9.47-14.64-45.08-29.94-89.94-44.09-135.16-1.62-5.15.49-13.47,4-17.85,9.67-12.07,21.24-22.55,31.45-34.24,2.88-3.31,3.59-8.51,5.29-12.86-4.49-1.56-9-4.38-13.5-4.46-22.8-.5-45.63-.33-68.43-.31-20.2,0-22.2-1.75-22.22-21.48q-.09-50.62,0-101.28c0-3.86,0-7.3-.11-10.37,0-.52,0-1-.06-1.53,0-1-.08-2-.13-2.88-.11-1.75-.28-3.39-.47-4.87,0-.11,0-.25-.05-.35-.06-.44-.14-.88-.22-1.29s-.17-.93-.28-1.4a19.93,19.93,0,0,0-.68-2.49A8.82,8.82,0,0,0,746.09,7c-.14-.36-.3-.68-.44-1s-.35-.66-.55-1-.3-.46-.46-.68-.17-.25-.25-.39a13.82,13.82,0,0,0-1.23-1.31,8.11,8.11,0,0,0-.77-.66,7.33,7.33,0,0,0-.79-.54s0,0-.05,0a10.19,10.19,0,0,0-.91-.52,14.48,14.48,0,0,0-2-.85H704.92l-.87.16c-.61.11-1.18.25-1.73.39-.27.08-.52.13-.76.22a10,10,0,0,0-1.43.49,12,12,0,0,0-1.34.6l-1.07.66c-.32.24-.65.52-1,.79a8.28,8.28,0,0,0-.83.85.12.12,0,0,0,0,.06,7.55,7.55,0,0,0-.74,1,8,8,0,0,0-.47.87,17,17,0,0,0-1.34,4.68c-.08.58-.16,1.15-.24,1.78-.11,1.15-.17,2.38-.22,3.72,0,.47,0,.93,0,1.4s0,1,0,1.45c-.14,34.21-.08,68.43,0,102.64,0,30.55.06,30.55-29.83,34.38-11.52,1.51-14.15,7.25-6.87,16.62,7.55,9.71,15.16,19.54,23.89,28.13,9.56,9.39,13.06,20,13,33.12-.28,59.29.13,118.6-.09,177.89,0,5-1.26,12.45-4.62,14.67-11.53,7.53-12.51,18.07-12.21,29.89.3,10.95.19,21.9.11,32.85-.14,20.33-2,22.17-21.71,22.11-5.94,0-11.87-.14-17.79-.16-24.36,0-26.6,2.08-26.6,26.47-.06,53.78.19,107.59-.22,161.38,0,4.51-4,9-6.19,13.52-2.24-4.38-6.05-8.6-6.51-13.14-7.88-78.94-15.36-157.91-23-236.87-7.71-80.34-15.6-160.67-23.18-241-2-21.07-6.24-24.36-26.69-18.47q-53.82,15.51-107.68,30.9c-22,6.24-24.44,9.85-25.37,32.27-2.63,63.34-5.36,126.68-8.7,190-5.34,102-11.28,204-16.78,306-1,18.17-.63,18.22-18.67,18.22q-162.18,0-324.35.09c-20.56,0-22.61,2.27-22.66,23Q0,874.71,0,945.9c0,18.78,3,21.43,22,23.54,25.84,2.82,51.56,6.6,77.38,9.72,8.54,1,12.39,5.36,10.72,13.79-1.8,9.23-8.1,6-13.9,4.71-24-5.31-47.9-10.92-72-15.49-21.57-4.08-26.74,1.91-21.95,23.65C8,1031.63,13,1057.63,19.65,1083.17c10.32,39.19,21.76,78.09,32.93,117.06,2.85,10,9.88,14.92,20.39,14.89q48.57-.12,97.17-.16c11.82,0,16.42-5.58,17.05-17.76,2.19-41.83,4.16-83.76,9-125.31,2.05-17.6,9.66-35.12,17.65-51.21,3.5-7,16.26-16.23,21.51-14.48,27.05,8.95,54,19.32,79,32.82,16.35,8.84,17.47,29,5.86,44.28-6.84,9-16.78,15.91-22.8,25.32-6.32,10-12.48,21.49-13.79,32.88-3.37,29.53,15.9,46.75,38.26,61.14,19.46,12.54,41.25,22.56,57.92,38,35,32.57,67.66,67.77,100.67,102.48,9.64,10.13,20.37,14.31,33.91,14.31q241.26-.33,482.53-.38v-16.75l-.05.05c-2.52-2.76-6-5.11-7.31-8.34s-.52-7.2-.52-10.84q0-244,.06-488c0-1.83-.66-4,.08-5.42,2.33-4.35,5.09-8.43,7.74-12.62V792.32c-3.83-2.16-3.66-7.23-3.39-19.05a211.72,211.72,0,0,0-1-25.92C992,741.13,993.25,737.25,997,735.33ZM53.54,801.82H344.72c18.22,0,18.22,0,17.95,17.82-.44,30.9-.44,30.9-33.28,29.42-68.32,0-136.64-.16-205,.08-29.59.11-59.2.91-88.79,1.84-10.57.3-15.82-2.74-16-14.54C19.24,801.87,18.86,801.82,53.54,801.82Zm242.1,72.59c-3.53,1.2-7,2.57-10.59,3.55-39,10.79-77.85,21.9-117,32-8.48,2.19-19,3.37-26.74.36-27.4-10.62-54-23.27-80.88-35.15.19-1.23.41-2.49.6-3.72H295.09C295.28,872.44,295.45,873.42,295.64,874.41ZM15.11,936.24c0-8.19,0-16.37,0-24.55h.11c0-8.19-.08-16.37,0-24.53.13-9,4.48-13,13.16-9.36q42.09,17.7,83.87,36.1c1.94.85,4.65,4.82,4.21,5.48-1.61,2.35-4.1,4.87-6.76,5.66-10.89,3.23-22,5.7-32.95,8.71-15.74,4.38-31.51,8.76-47.14,13.57C19.13,950.53,15.08,946.31,15.11,936.24Zm188.34,70.07c-31.12,53.21-29.89,112.63-32.71,171.18-1,21.54-1.42,22.88-23.4,22.91-10,0-20.06,0-30.08,0v-.06c-11.39,0-22.83-.68-34.13.22C73,1201.36,67.5,1197,65,1188c-9.53-33.77-19.32-67.44-28.11-101.41-5.94-22.85-10.84-46-15.33-69.19-4-20.59-2.13-22,17.71-17q35.07,8.82,70.07,17.82c10.46,2.68,15.74-1.37,16.92-13.2,2.13-21.67,2.16-21.78,23.1-18,16.12,2.93,32.13,6.24,48.25,9.12C204.05,997.28,207,1000.18,203.45,1006.31Zm163.68,185.14c0,4.73-1.26,9.44-2.24,16.42-23.38-10.07-44.21-20.28-58.33-39.44-13-17.71-8.32-40.87,9.17-58.11,7.39-7.31,15.38-14.56,20.8-23.27,13.77-22.17,10.48-44.86-11.58-58.6-21.76-13.55-45.43-25.51-69.88-33A876.25,876.25,0,0,0,74.7,960.16c-3.37-.3-6.65-1.67-10-2.52-.2-1.26-.39-2.52-.55-3.78,15.85-4.48,31.72-9,47.6-13.46,6.16-1.73,12.48-2.88,18.47-5,11.77-4.19,22.58-3.53,34.33,1.61q93.27,40.77,187.13,80.28c11.25,4.74,15.8,11.31,15.66,23.71C366.83,1091.16,367.24,1141.3,367.13,1191.45Zm-13.27-190.07q-28.33-12-56.55-24.09c-33.92-14.53-67.83-29-101.6-43.84-4.63-2-8.57-5.59-16.24-10.73,22.64-6.46,41.23-12,59.92-17.06,37.75-10.32,75.65-20.09,113.32-30.79,10.81-3.06,14.48.44,14.5,10.62q0,54,.14,108.06C367.38,1004,361.74,1004.72,353.86,1001.38Zm572.33-627.3c3.7-1.12,11.09.06,12.37,2.52,8.08,15.08,14.89,30.82,23.27,48.81H768.45c-.27-.91-.55-1.78-.82-2.69,19.49-5.69,39-11.08,58.41-17.1C859.46,395.24,892.69,384.27,926.19,374.08ZM757.64,172.14c21.54-1.56,43.22-.8,66.73-.8C810.14,199.89,785.2,212,758,204.05c-4.3-1.26-9-10-8.84-15.27C749.24,182.92,754.19,172.38,757.64,172.14Zm21,49c9.94-.16,16.29,3.48,19.52,13.28,14.81,44.91,30.11,89.64,44.4,134.72,1.06,3.39-3.29,11.72-6.74,12.89-37.93,12.73-76.23,24.34-114.33,36.63-11.3,3.64-12.59-2.77-12.62-11.09-.05-28.69,0-57.37,0-86.06h-.05c0-27.78.3-55.56-.17-83.31-.19-12.08,4.17-17.66,16.73-17.25C743.11,221.54,760.9,221.41,778.63,221.13ZM709,27.45c0-7.63,1.86-13.57,11.17-13.85,10.42-.27,11.68,6.68,11.71,14.57.08,19.13,0,38.29,0,57.42H732c0,18.69.05,37.39,0,56.06,0,7.22-.79,14.26-10.32,14.61s-12.75-5.42-12.75-14Q709,84.87,709,27.45ZM708.1,190c.63-8.9-.3-20.7,13.35-18.56,5.15.82,9.12,8.87,16.32,16.45-7.26,7.53-11.14,15.05-16.53,16.34C711.71,206.49,707.44,199.18,708.1,190Zm23.51,261.37c33.69-.09,67.36,0,101,0v-.79c41.88,0,83.76.16,125.64-.14,7.47-.06,11.25,2.33,11.11,10,0,.91,0,1.81.06,2.71,1.89,43.25,1.89,43.25-41,43.3q-107.21.14-214.43.22c-16.53,0-18.15-1.56-18.34-17.68C695.26,451.44,695.26,451.38,731.61,451.33ZM660.14,531c91.07-.43,182.16-.13,273.25-.19,6.35,0,12.89.5,19.05-.74,12.62-2.57,17.33,1.62,17.14,14.68-.61,44.77,4.57,37.79-37.28,38.32-44.62.54-89.26.1-133.88.1v-.08c-50.55,0-101.11-.33-151.66.25-13,.14-17.9-4.6-18.23-17.19C627.38,522.49,627.49,531.14,660.14,531Zm-2.93,76.81q71.12,0,142.23,0v-.17q75.91,0,151.8,0c17,0,18.31,1.15,18.17,17.6-.38,42,6.05,36-36,36.16-92.54.33-185.08.19-277.6.19-4.54,0-9.11-.44-13.66-.63-9.63-.38-14-5.39-13.27-14.94.3-4.11.82-8.19.82-12.29C629.6,607.1,626.86,607.81,657.21,607.81Zm-28.38,87.81c1-4.19,6.32-9.12,10.62-10.35,6.35-1.83,13.55-.74,20.39-.74q147.1,0,294.22-.08c9.28,0,15.93.68,15.76,12.84s-6.51,14.12-16.61,14.06c-51.54-.24-103.11-.1-154.65-.1v-.09c-52,0-104-.24-156,.19C630.53,711.46,626.31,705.88,628.83,695.62Zm-11,38.29h167v.16q83.46,0,166.93,0c17.22,0,17.88.71,17.91,17.55,0,10-.28,20.09,0,30.11.27,8.73-3.45,12.4-12.21,12.15-13.69-.36-27.37-.11-41.06-.11q-147.1,0-294.21,0c-19.77,0-19.68,0-19.88-19.65-.05-7.75-.46-15.49-.9-23.24C600.5,735.06,601.54,733.91,617.88,733.91Zm-34.62,35.28c.08,56.49.13,113-.25,169.54,0,8,3.89,18.17-7.25,22.69-12.68,5.12-29.43.71-36.82-10.07-10-14.65-19.57-29.65-29.15-44.59-20.69-32.3-20.64-32.3,1.75-63.23q29.61-40.93,59.21-81.89c2-2.77,4.6-5.1,6.92-7.61l3.89,1C582.13,759.75,583.26,764.46,583.26,769.19ZM526.71,959.61H428.23c17.84-24.41,33.42-45.73,50.8-69.49C495.34,913.93,510,935.31,526.71,959.61ZM394,736.15c.49-1.61,1-3.23,1.45-4.84,57.67-.55,115.34-.3,173-.11.57,1.72,1.12,3.42,1.67,5.12-29.54,41-59.1,82.08-90.6,125.85C449.74,818.27,421.87,777.21,394,736.15Zm41.22,242.79c30,1.2,60.06.57,90.08.11,10.21-.17,17.38,3.5,22.72,12,7.42,11.79,15.14,23.4,24.44,37.69-6.65.93-9.66,1.94-12.53,1.64q-75.35-7.6-150.66-15.58c-15.73-1.69-15.87-3.8-8.45-17.49C408.57,983,419.14,978.28,435.23,978.94Zm123.34,2.38c8.84,0,18.39-2.19,19.95.44,3.7,6.18,3.64,14.67,5.09,22.19-2.13.74-4.27,1.46-6.4,2.17C571.76,998.89,566.34,991.66,558.57,981.32ZM384.65,698.19Q391.79,576,398.42,453.71c3.31-60.57,6.79-121.12,8.95-181.72.49-13.82,4.87-20.64,17.87-24.22,32.05-8.87,63.86-18.59,95.8-27.87,11.69-3.39,14.34,3.81,15.22,13.14,3.72,39.5,7.42,79,11.33,118.44,5.09,51.26,10.65,102.47,15.49,153.77,5.4,57.18,10.19,114.41,15.22,171.62.36,4.08.44,8.21.88,12.29,2.76,25.42,2.79,25.29-22.12,25.1-25.1-.2-50.2-.06-75.27-.06v.08c-27.37,0-54.77-.52-82.11.25C387,714.89,384,709.52,384.65,698.19Zm-.11,71.25c0-3.75,1.34-7.5,2.76-15,6.33,8.89,10.52,14.59,14.46,20.42,20.42,30.1,40.62,60.38,61.28,90.32,5.2,7.58,5,13.61-.44,20.94-15.49,20.8-30.3,42.1-45.71,62.93-3.42,4.62-7.72,9.41-12.7,11.9-11.27,5.62-20,0-20-12.61Q384,858.87,384.54,769.44ZM383.8,1043c-.66-11.72,4.24-15.49,15.47-14.15q69.3,8.09,138.66,15.63c14.94,1.64,30,2.65,44.94,3.8,11.69.9,16.29-4.71,16.26-16.34-.11-66.59.17-133.19.28-199.76,0-17.6,1-18.72,18.47-18.74q167.68,0,335.3,0c19,0,19.87.93,19.87,20.31q.09,90.33,0,180.65h.49c0,61.59-.11,123.17.14,184.73,0,10.81-3.67,16-15,16q-162.82-.29-325.72-.13c-11.85,0-15.93-5.53-15.76-17,.41-26.9.24-53.81,0-80.72-.14-16.69-3.36-20.14-20.14-20.2-65.26-.21-130.48-.52-195.71.11-13.55.14-18-4.59-17.46-17.38A366.69,366.69,0,0,0,383.8,1043ZM494,1174.62c2.6-.77,6.24,1,9.06,2.4q27.59,13.43,55,27.32c2.87,1.48,5.06,4.3,7.55,6.51-.57.91-1.15,1.84-1.69,2.77H422.07c-.44-1.34-.85-2.71-1.29-4C444.43,1196.43,467.56,1182.22,494,1174.62Zm-10-24c-20.88-10-41.38-20.86-62-31.53-1.39-.74-2.27-2.46-5.2-5.78h149c.08,1.56.44,3,.14,3.18-22.45,11.77-44.78,23.76-67.58,34.84C494.55,1153.18,488.06,1152.55,484,1150.61Zm30.33,14.56c3.09-4.05,3.86-6,5.28-6.76,23.84-12.34,47.63-24.74,71.85-36.35,2.16-1,10.07,3.4,10.13,5.45.76,23.68.76,47.38.13,71.06-.05,2.4-7,7.33-8.48,6.59C567.19,1192.49,541.52,1179.13,514.31,1165.17Zm-130,31.15c-.13-21.9-.24-43.79,0-65.66.05-6.41,1.78-13.06,10.53-8.71,24.06,12,47.88,24.45,71.75,36.82,1.09.54,1.77,2,4.81,5.55-7.2,4.22-13.16,8-19.4,11.28-18.18,9.47-36.6,18.56-54.69,28.17C388.32,1208.53,384.38,1205.93,384.29,1196.32Zm130.4,128.59c-.11,4.93-3,9.8-4.57,14.7-5.69-1.94-12.95-2.3-16.83-6.1-22.8-22.28-44.86-45.33-67.12-68.21-10-10.32-19.92-20.83-29.86-31.23.6-1.51,1.23-3,1.86-4.52h22.61c26,0,52,.38,78,0,11.61-.16,16.51,4.19,16.29,16.07C514.55,1272,515.13,1298.47,514.69,1324.91Zm352.9-2c0,15.74-2.55,18.37-18.2,18.4q-75.18.12-150.35,0v-.08q-74.52,0-149,0c-17.16,0-18.7-1.69-18.75-18.83-.11-25.51.22-51-.36-76.55-.24-11.8,4.46-16.26,16.12-16.24q152.37.33,304.78.09c11.77,0,16.15,5.17,15.93,16.67C867.32,1271.87,867.65,1297.4,867.59,1322.91Zm106.17-78.58c-.35,13.66-.08,27.34-.08,41h-.11c0,14.13-.24,28.28.08,42.4.22,9.2-3.8,13.66-12.86,13.69-21.9,0-43.77.08-65.66,0-8.46,0-12.35-4.73-12.38-13q-.16-43.11-.3-86.17c0-8.34,4.11-12.67,12.57-12.7,21.89,0,43.76,0,65.66-.11C970.89,1229.44,974,1234.94,973.76,1244.33Z"/><path class="cls-2" d="M732,141.65c0,7.22-.79,14.26-10.32,14.61s-12.75-5.42-12.75-14q0-57.43.11-114.85c0-7.63,1.86-13.57,11.17-13.85,10.42-.27,11.68,6.68,11.71,14.57.08,19.13,0,38.29,0,57.42H732C732,104.28,732.07,123,732,141.65Z"/><path class="cls-2" d="M737.77,187.85c-7.26,7.53-11.14,15.05-16.53,16.34-9.53,2.3-13.8-5-13.14-14.23.63-8.9-.3-20.7,13.35-18.56C726.6,172.22,730.57,180.27,737.77,187.85Z"/><path class="cls-2" d="M824.37,171.34C810.14,199.89,785.2,212,758,204.05c-4.3-1.26-9-10-8.84-15.27.11-5.86,5.06-16.4,8.51-16.64C779.18,170.58,800.86,171.34,824.37,171.34Z"/><path class="cls-2" d="M835.81,382c-37.93,12.73-76.23,24.34-114.33,36.63-11.3,3.64-12.59-2.77-12.62-11.09-.05-28.69,0-57.37,0-86.06h-.05c0-27.78.3-55.56-.17-83.31-.19-12.08,4.17-17.66,16.73-17.25,17.74.6,35.53.47,53.26.19,9.94-.16,16.29,3.48,19.52,13.28,14.81,44.91,30.11,89.64,44.4,134.72C843.61,372.52,839.26,380.85,835.81,382Z"/><path class="cls-2" d="M961.83,425.41H768.45c-.27-.91-.55-1.78-.82-2.69,19.49-5.69,39-11.08,58.41-17.1,33.42-10.38,66.65-21.35,100.15-31.54,3.7-1.12,11.09.06,12.37,2.52C946.64,391.68,953.45,407.42,961.83,425.41Z"/><path class="cls-2" d="M928.44,506.34q-107.21.14-214.43.22c-16.53,0-18.15-1.56-18.34-17.68-.41-37.44-.41-37.5,35.94-37.55,33.69-.09,67.36,0,101,0v-.79c41.88,0,83.76.16,125.64-.14,7.47-.06,11.25,2.33,11.11,10,0,.91,0,1.81.06,2.71C971.36,506.29,971.36,506.29,928.44,506.34Z"/><path class="cls-2" d="M932.3,583.07c-44.62.54-89.26.1-133.88.1v-.08c-50.55,0-101.11-.33-151.66.25-13,.14-17.9-4.6-18.23-17.19-1.15-43.66-1-35,31.61-35.15,91.07-.43,182.16-.13,273.25-.19,6.35,0,12.89.5,19.05-.74,12.62-2.57,17.33,1.62,17.14,14.68C969,589.52,974.15,582.54,932.3,583.07Z"/><path class="cls-2" d="M933.39,661.43c-92.54.33-185.08.19-277.6.19-4.54,0-9.11-.44-13.66-.63-9.63-.38-14-5.39-13.27-14.94.3-4.11.82-8.19.82-12.29-.08-26.66-2.82-26,27.53-26q71.12,0,142.23,0v-.17q75.91,0,151.8,0c17,0,18.31,1.15,18.17,17.6C969,667.23,975.46,661.29,933.39,661.43Z"/><path class="cls-2" d="M969.82,697.29c-.19,12.18-6.51,14.12-16.61,14.06-51.54-.24-103.11-.1-154.65-.1v-.09c-52,0-104-.24-156,.19-12,.11-16.26-5.47-13.74-15.73,1-4.19,6.32-9.12,10.62-10.35,6.35-1.83,13.55-.74,20.39-.74q147.1,0,294.22-.08C963.34,684.42,970,685.13,969.82,697.29Z"/><path class="cls-2" d="M969.69,781.73c.27,8.73-3.45,12.4-12.21,12.15-13.69-.36-27.37-.11-41.06-.11q-147.1,0-294.21,0c-19.77,0-19.68,0-19.88-19.65-.05-7.75-.46-15.49-.9-23.24-.93-15.79.11-16.94,16.45-16.94h167v.16q83.46,0,166.93,0c17.22,0,17.88.71,17.91,17.55C969.71,761.66,969.41,771.71,969.69,781.73Z"/><path class="cls-2" d="M973.76,1244.33c-.35,13.66-.08,27.34-.08,41h-.11c0,14.13-.24,28.28.08,42.4.22,9.2-3.8,13.66-12.86,13.69-21.9,0-43.77.08-65.66,0-8.46,0-12.35-4.73-12.38-13q-.16-43.11-.3-86.17c0-8.34,4.11-12.67,12.57-12.7,21.89,0,43.76,0,65.66-.11C970.89,1229.44,974,1234.94,973.76,1244.33Z"/><path class="cls-2" d="M867.59,1322.91c0,15.74-2.55,18.37-18.2,18.4q-75.18.12-150.35,0v-.08q-74.52,0-149,0c-17.16,0-18.7-1.69-18.75-18.83-.11-25.51.22-51-.36-76.55-.24-11.8,4.46-16.26,16.12-16.24q152.37.33,304.78.09c11.77,0,16.15,5.17,15.93,16.67C867.32,1271.87,867.65,1297.4,867.59,1322.91Z"/><path class="cls-2" d="M514.69,1324.91c-.11,4.93-3,9.8-4.57,14.7-5.69-1.94-12.95-2.3-16.83-6.1-22.8-22.28-44.86-45.33-67.12-68.21-10-10.32-19.92-20.83-29.86-31.23.6-1.51,1.23-3,1.86-4.52h22.61c26,0,52,.38,78,0,11.61-.16,16.51,4.19,16.29,16.07C514.55,1272,515.13,1298.47,514.69,1324.91Z"/><path class="cls-2" d="M565.6,1210.85c-.57.91-1.15,1.84-1.69,2.77H422.07c-.44-1.34-.85-2.71-1.29-4,23.65-13.14,46.78-27.35,73.25-35,2.6-.77,6.24,1,9.06,2.4q27.59,13.43,55,27.32C560.92,1205.82,563.11,1208.64,565.6,1210.85Z"/><path class="cls-2" d="M601.7,1198.57c-.05,2.4-7,7.33-8.48,6.59-26-12.67-51.7-26-78.91-40,3.09-4.05,3.86-6,5.28-6.76,23.84-12.34,47.63-24.74,71.85-36.35,2.16-1,10.07,3.4,10.13,5.45C602.33,1151.19,602.33,1174.89,601.7,1198.57Z"/><path class="cls-2" d="M566,1116.48c-22.45,11.77-44.78,23.76-67.58,34.84-3.86,1.86-10.35,1.23-14.43-.71-20.88-10-41.38-20.86-62-31.53-1.39-.74-2.27-2.46-5.2-5.78h149C565.93,1114.86,566.29,1116.31,566,1116.48Z"/><path class="cls-2" d="M471.36,1164.32c-7.2,4.22-13.16,8-19.4,11.28-18.18,9.47-36.6,18.56-54.69,28.17-8.95,4.76-12.89,2.16-13-7.45-.13-21.9-.24-43.79,0-65.66.05-6.41,1.78-13.06,10.53-8.71,24.06,12,47.88,24.45,71.75,36.82C467.64,1159.31,468.32,1160.74,471.36,1164.32Z"/><path class="cls-2" d="M203.45,1006.31c-31.12,53.21-29.89,112.63-32.71,171.18-1,21.54-1.42,22.88-23.4,22.91-10,0-20.06,0-30.08,0v-.06c-11.39,0-22.83-.68-34.13.22C73,1201.36,67.5,1197,65,1188c-9.53-33.77-19.32-67.44-28.11-101.41-5.94-22.85-10.84-46-15.33-69.19-4-20.59-2.13-22,17.71-17q35.07,8.82,70.07,17.82c10.46,2.68,15.74-1.37,16.92-13.2,2.13-21.67,2.16-21.78,23.1-18,16.12,2.93,32.13,6.24,48.25,9.12C204.05,997.28,207,1000.18,203.45,1006.31Z"/><path class="cls-2" d="M367.13,1191.45c0,4.73-1.26,9.44-2.24,16.42-23.38-10.07-44.21-20.28-58.33-39.44-13-17.71-8.32-40.87,9.17-58.11,7.39-7.31,15.38-14.56,20.8-23.27,13.77-22.17,10.48-44.86-11.58-58.6-21.76-13.55-45.43-25.51-69.88-33A876.25,876.25,0,0,0,74.7,960.16c-3.37-.3-6.65-1.67-10-2.52-.2-1.26-.39-2.52-.55-3.78,15.85-4.48,31.72-9,47.6-13.46,6.16-1.73,12.48-2.88,18.47-5,11.77-4.19,22.58-3.53,34.33,1.61q93.27,40.77,187.13,80.28c11.25,4.74,15.8,11.31,15.66,23.71C366.83,1091.16,367.24,1141.3,367.13,1191.45Z"/><path class="cls-2" d="M116.49,919.38c-1.61,2.35-4.1,4.87-6.76,5.66-10.89,3.23-22,5.7-32.95,8.71-15.74,4.38-31.51,8.76-47.14,13.57-10.51,3.21-14.56-1-14.53-11.08,0-8.19,0-16.37,0-24.55h.11c0-8.19-.08-16.37,0-24.53.13-9,4.48-13,13.16-9.36q42.09,17.7,83.87,36.1C114.22,914.75,116.93,918.72,116.49,919.38Z"/><path class="cls-2" d="M362.67,819.64c-.44,30.9-.44,30.9-33.28,29.42-68.32,0-136.64-.16-205,.08-29.59.11-59.2.91-88.79,1.84-10.57.3-15.82-2.74-16-14.54-.44-34.57-.82-34.62,33.86-34.62H344.72C362.94,801.82,362.94,801.87,362.67,819.64Z"/><path class="cls-2" d="M295.64,874.41c-3.53,1.2-7,2.57-10.59,3.55-39,10.79-77.85,21.9-117,32-8.48,2.19-19,3.37-26.74.36-27.4-10.62-54-23.27-80.88-35.15.19-1.23.41-2.49.6-3.72H295.09C295.28,872.44,295.45,873.42,295.64,874.41Z"/><path class="cls-2" d="M367.35,993.55c0,10.49-5.61,11.17-13.49,7.83q-28.33-12-56.55-24.09c-33.92-14.53-67.83-29-101.6-43.84-4.63-2-8.57-5.59-16.24-10.73,22.64-6.46,41.23-12,59.92-17.06,37.75-10.32,75.65-20.09,113.32-30.79,10.81-3.06,14.48.44,14.5,10.62Q367.26,939.52,367.35,993.55Z"/><path class="cls-2" d="M973.71,1199.11c0,10.81-3.67,16-15,16q-162.82-.29-325.72-.13c-11.85,0-15.93-5.53-15.76-17,.41-26.9.24-53.81,0-80.72-.14-16.69-3.36-20.14-20.14-20.2-65.26-.21-130.48-.52-195.71.11-13.55.14-18-4.59-17.46-17.38a366.69,366.69,0,0,0-.14-36.92c-.66-11.72,4.24-15.49,15.47-14.15q69.3,8.09,138.66,15.63c14.94,1.64,30,2.65,44.94,3.8,11.69.9,16.29-4.71,16.26-16.34-.11-66.59.17-133.19.28-199.76,0-17.6,1-18.72,18.47-18.74q167.68,0,335.3,0c19,0,19.87.93,19.87,20.31q.09,90.33,0,180.65h.49C973.57,1076,973.46,1137.55,973.71,1199.11Z"/><path class="cls-2" d="M583.61,1004c-2.13.74-4.27,1.46-6.4,2.17-5.45-7.23-10.87-14.46-18.64-24.8,8.84,0,18.39-2.19,19.95.44C582.22,987.94,582.16,996.43,583.61,1004Z"/><path class="cls-2" d="M572.47,1028.73c-6.65.93-9.66,1.94-12.53,1.64q-75.35-7.6-150.66-15.58c-15.73-1.69-15.87-3.8-8.45-17.49,7.74-14.28,18.31-19,34.4-18.36,30,1.2,60.06.57,90.08.11,10.21-.17,17.38,3.5,22.72,12C555.45,1002.83,563.17,1014.44,572.47,1028.73Z"/><path class="cls-2" d="M526.71,959.61H428.23c17.84-24.41,33.42-45.73,50.8-69.49C495.34,913.93,510,935.31,526.71,959.61Z"/><path class="cls-2" d="M462.6,886.12c-15.49,20.8-30.3,42.1-45.71,62.93-3.42,4.62-7.72,9.41-12.7,11.9-11.27,5.62-20,0-20-12.61q-.15-89.48.36-178.9c0-3.75,1.34-7.5,2.76-15,6.33,8.89,10.52,14.59,14.46,20.42,20.42,30.1,40.62,60.38,61.28,90.32C468.24,872.76,468.05,878.79,462.6,886.12Z"/><path class="cls-2" d="M575.76,961.42c-12.68,5.12-29.43.71-36.82-10.07-10-14.65-19.57-29.65-29.15-44.59-20.69-32.3-20.64-32.3,1.75-63.23q29.61-40.93,59.21-81.89c2-2.77,4.6-5.1,6.92-7.61l3.89,1c.57,4.74,1.7,9.45,1.7,14.18.08,56.49.13,113-.25,169.54C583,946.69,586.9,956.9,575.76,961.42Z"/><path class="cls-2" d="M570.15,736.32c-29.54,41-59.1,82.08-90.6,125.85-29.81-43.9-57.68-85-85.54-126,.49-1.61,1-3.23,1.45-4.84,57.67-.55,115.34-.3,173-.11C569.05,732.92,569.6,734.62,570.15,736.32Z"/><path class="cls-2" d="M557.06,714.26c-25.1-.2-50.2-.06-75.27-.06v.08c-27.37,0-54.77-.52-82.11.25-12.7.36-15.71-5-15-16.34Q391.79,576,398.42,453.71c3.31-60.57,6.79-121.12,8.95-181.72.49-13.82,4.87-20.64,17.87-24.22,32.05-8.87,63.86-18.59,95.8-27.87,11.69-3.39,14.34,3.81,15.22,13.14,3.72,39.5,7.42,79,11.33,118.44,5.09,51.26,10.65,102.47,15.49,153.77,5.4,57.18,10.19,114.41,15.22,171.62.36,4.08.44,8.21.88,12.29C581.94,714.58,582,714.45,557.06,714.26Z"/></g></g></svg>