<svg xmlns="http://www.w3.org/2000/svg" viewBox="0 0 692.5 563.85"><defs><style>.cls-1{fill:#003698;}.cls-2{fill:#2e6fce;}.cls-3{fill:#fff;}</style></defs><g id="Capa_2" data-name="Capa 2"><g id="Capa_1-2" data-name="Capa 1"><rect class="cls-1" y="13.69" width="21.9" height="541.95"/><path class="cls-2" d="M148.19,563.82q272.16.09,544.31-.11v.14H0v-.08Q74.11,563.81,148.19,563.82Z"/><path class="cls-3" d="M0,0V30.49c1.42-3.39,4.57-6.81,6.46-10.24,2.87,4.77,8.24,9.5,8.27,14.24q.86,192.8.71,385.58c0,37.83.08,75.65-.69,113.45-.08,4.44-5.36,8.79-8.24,13.2-1.94-3.64-5.22-7.26-6.51-10.93v28q74.11,0,148.19.05,52,0,104,0,220.19,0,440.35-.14V0ZM67,422.86c5.91-5.2,8.41-8,11.47-10,61.83-39.2,123.8-78.18,185.55-117.48,27.26-17.33,54.44-34.79,81-53.18,10.4-7.2,17-1.43,24.47,3.5,32.73,21.43,65.19,43.33,98.18,64.41,54.41,34.78,109.13,69,163.68,103.57,3,1.89,5.58,4.41,11.47,9.14Zm506.32,24.33c-8.57,2.06-17.08,4.55-25.76,6.13-56.88,10.38-113.7,21.22-170.77,30.41a150.76,150.76,0,0,1-48.61-.46c-64.1-11-128-23.46-192-35.45-1.09-.19-2-1.23-5.91-3.69H572.88C573,445.17,573.18,446.18,573.35,447.19Zm-121.28-174q-32.73-21.06-65.75-41.61c-8.38-5.17-8.73-9.6-.36-14.91,43.5-27.46,87.07-54.8,130.4-82.56C562.29,104.64,608,74.81,653.77,45.22c4.76-3.07,9.85-5.7,17.49-10.08V412.05c-6.93-3.53-12.29-5.75-17.11-8.81Q553.07,338.28,452.07,273.14ZM554.49,82.58Q503.3,115.3,452.28,148.27c-28.68,18.5-57,37.72-86.32,55.07-5.86,3.48-17.5,2.77-23.71-.79-26-15-51-31.73-76.31-47.93q-62.61-40.11-125.2-80.36C116.3,58.57,91.86,42.92,63.69,24.85H641.15c.22.8.44,1.56.65,2.33C612.68,45.63,583.53,64,554.49,82.58ZM34.9,33.5C54,45.22,71.8,55.76,89.23,66.84Q163.54,114,237.61,161.52c28.33,18.15,56.47,36.57,84.8,54.71,8.65,5.51,9.39,9.88,0,15.77Q209.86,303,97.52,374.36C77.65,387,57.89,399.79,34.9,414.54Zm15,509.79c-16,3-18.86,1.18-19-14.89-.16-22.8,0-45.6,0-68.4,0-9.88,2.61-15.11,14.68-12.86,74.34,13.93,148.76,27.18,223.15,40.7,7.89,1.45,15.69,3.37,23.54,5.06,0,2,.09,4,.11,5.92-16.31,3.09-32.6,6.29-48.94,9.27C178.9,519.84,114.36,531.44,49.87,543.29Zm98.87-1.58c5.11-1.23,10.15-2.74,15.3-3.7,52.8-9.72,105.51-20,158.5-28.63,17.3-2.82,35.72-4,52.89-1.31,57,9,113.75,20.17,170.57,30.57,3.84.71,7.53,2.16,12.21,3.56C549.26,548.55,162.89,550,148.74,541.71Zm529.17-12.59c-.11,13.65-4.36,17-18,14.53q-113.52-20.37-227-41c-5.62-1-10.93-3.67-16.35-5.56,0-1.42,0-2.87,0-4.29,12.32-2.49,24.64-5.18,37-7.39,69.41-12.59,138.85-24.91,208.21-37.69,10.49-1.92,16,.57,16,11.79C677.82,482.69,678.1,505.9,677.91,529.12Z"/><path class="cls-1" d="M558.21,542.2c-9,6.35-395.32,7.75-409.47-.49,5.11-1.23,10.15-2.74,15.3-3.7,52.8-9.72,105.51-20,158.5-28.63,17.3-2.82,35.72-4,52.89-1.31,57,9,113.75,20.17,170.57,30.57C549.84,539.35,553.53,540.8,558.21,542.2Z"/><path class="cls-1" d="M677.91,529.12c-.11,13.65-4.36,17-18,14.53q-113.52-20.37-227-41c-5.62-1-10.93-3.67-16.35-5.56,0-1.42,0-2.87,0-4.29,12.32-2.49,24.64-5.18,37-7.39,69.41-12.59,138.85-24.91,208.21-37.69,10.49-1.92,16,.57,16,11.79C677.82,482.69,678.1,505.9,677.91,529.12Z"/><path class="cls-1" d="M573.35,447.19c-8.57,2.06-17.08,4.55-25.76,6.13-56.88,10.38-113.7,21.22-170.77,30.41a150.76,150.76,0,0,1-48.61-.46c-64.1-11-128-23.46-192-35.45-1.09-.19-2-1.23-5.91-3.69H572.88C573,445.17,573.18,446.18,573.35,447.19Z"/><path class="cls-1" d="M292.35,498.82c-16.31,3.09-32.6,6.29-48.94,9.27-64.51,11.75-129,23.35-193.54,35.2-16,3-18.86,1.18-19-14.89-.16-22.8,0-45.6,0-68.4,0-9.88,2.61-15.11,14.68-12.86,74.34,13.93,148.76,27.18,223.15,40.7,7.89,1.45,15.69,3.37,23.54,5.06C292.27,494.87,292.33,496.85,292.35,498.82Z"/></g></g></svg>